<?xml version="1.0" encoding="utf-8"?>
<!-- Generator: Adobe Illustrator 21.1.0, SVG Export Plug-In . SVG Version: 6.00 Build 0)  -->
<svg version="1.1" id="レイヤー_1" xmlns="http://www.w3.org/2000/svg" xmlns:xlink="http://www.w3.org/1999/xlink" x="0px"
	 y="0px" viewBox="0 0 300 128" style="enable-background:new 0 0 300 128;" xml:space="preserve">
<style type="text/css">
	.st0{fill:#FFFFFF;stroke:#727171;stroke-miterlimit:10;}
	.st1{fill:#C9CACA;stroke:#727171;stroke-miterlimit:10;}
	.st2{fill:#E60012;stroke:#E60012;stroke-miterlimit:10;}
</style>
<rect x="44.9" y="18.4" class="st0" width="245.3" height="91.2"/>
<rect x="44.9" y="18.4" class="st1" width="15.6" height="91.2"/>
<circle cx="53" cy="64" r="3.9"/>
<rect x="44.9" y="62" class="st2" width="5" height="4.2"/>
<path class="st2" d="M44.9,62.7c0,0-9-10-11.3-13.2c0,0,0.3,4-3.8,5.1c-4.1,1.1-2.7,4.2-3.2,6.6c-0.4,2-2.5,2.8-4,3.6h22.3V62.7z"/>
<g>
	<path d="M83,55.7c0.2,0,0.3-0.1,0.5-0.1c0.7,0,1.3,0.2,1.9,0.6c0.3,0.2,0.5,0.5,0.6,0.9c0,0.1,0,0.2,0,0.3c0,0.3-0.1,0.5-0.2,0.7
		c-0.1,0.2-0.2,0.3-0.2,0.5c-1.1,2.6-2.5,4.9-4,7c-0.1,0.1-0.1,0.2,0,0.3c2,1.8,4.1,3.8,6.1,6.2c0.2,0.3,0.4,0.6,0.4,1
		c0,0,0,0.1,0,0.1c0,0.4-0.2,0.7-0.5,1l-0.7,0.6c-0.3,0.2-0.6,0.4-0.9,0.4c-0.1,0-0.1,0-0.2,0c-0.4,0-0.7-0.2-1-0.5
		c-1.5-1.9-3.3-3.9-5.5-6c-0.1-0.1-0.2-0.1-0.3,0c-2.6,2.7-5.4,4.9-8.3,6.5c-0.3,0.2-0.6,0.2-0.9,0.2c-0.1,0-0.2,0-0.3,0
		c-0.4-0.1-0.8-0.3-1.1-0.6L67.7,74c-0.2-0.2-0.3-0.4-0.3-0.7c0-0.1,0-0.1,0-0.2c0.1-0.4,0.3-0.6,0.6-0.7c1.8-0.8,3.5-1.8,5.1-3.1
		c1.6-1.2,3-2.5,4.2-3.8c0.8-1,1.6-2,2.3-3.1c0.7-1.1,1.2-2.1,1.5-3c0-0.1,0-0.1,0-0.1c0,0-0.1-0.1-0.1-0.1h-8.6
		c-0.4,0-0.9,0-1.6,0.1c0,0-0.1,0-0.1,0c-0.4,0-0.7-0.1-0.9-0.4c-0.3-0.3-0.5-0.6-0.5-1v-0.7c0-0.4,0.2-0.7,0.5-1
		c0.3-0.3,0.6-0.4,0.9-0.4c0,0,0.1,0,0.1,0c0.6,0.1,1.2,0.1,1.6,0.1h9.2C82,55.8,82.5,55.8,83,55.7z"/>
	<path d="M92,61.5h17c0.2,0,0.5,0,0.9,0c0,0,0.1,0,0.1,0c0.4,0,0.7,0.1,1,0.4c0.3,0.3,0.4,0.6,0.4,1v0.4c0,0.4-0.1,0.7-0.4,1
		c-0.3,0.3-0.6,0.4-1,0.4c0,0,0,0-0.1,0c-0.3,0-0.6,0-0.9,0H103c-0.1,0-0.2,0.1-0.2,0.2c-0.2,2.5-0.7,4.7-1.7,6.5
		c-0.4,0.7-0.9,1.5-1.6,2.2c-0.7,0.7-1.5,1.4-2.3,2c-0.4,0.2-0.7,0.3-1.1,0.3c0,0-0.1,0-0.1,0c-0.4,0-0.9-0.2-1.2-0.5L94.1,75
		c-0.2-0.2-0.4-0.4-0.4-0.7c0-0.4,0.2-0.7,0.5-0.8c1.4-0.8,2.5-1.9,3.4-3.1c0.9-1.4,1.5-3.3,1.6-5.6c0-0.1-0.1-0.2-0.2-0.2h-7
		c-0.3,0-0.6,0-1,0c0,0,0,0-0.1,0c-0.4,0-0.7-0.1-1-0.4c-0.3-0.3-0.4-0.6-0.4-1v-0.4c0-0.4,0.2-0.7,0.5-1c0.3-0.3,0.6-0.4,0.9-0.4
		c0,0,0.1,0,0.1,0C91.4,61.5,91.8,61.5,92,61.5z M105.8,58H95.4c-0.4,0-0.8,0-1.3,0c0,0,0,0-0.1,0c-0.4,0-0.7-0.1-1-0.4
		c-0.3-0.3-0.4-0.6-0.4-1v-0.4c0-0.4,0.1-0.7,0.4-1c0.3-0.3,0.6-0.4,1-0.4c0,0,0.1,0,0.1,0c0.4,0,0.8,0.1,1.2,0.1h10.5
		c0.4,0,0.9,0,1.3-0.1c0,0,0.1,0,0.1,0c0.4,0,0.7,0.1,0.9,0.4c0.3,0.3,0.5,0.6,0.5,1v0.4c0,0.4-0.2,0.7-0.5,1
		c-0.3,0.3-0.6,0.4-1,0.4c0,0,0,0-0.1,0C106.6,58,106.2,58,105.8,58z"/>
	<path d="M116,66.6C116,66.6,115.9,66.6,116,66.6c-0.4,0-0.8-0.1-1-0.4c-0.3-0.3-0.5-0.6-0.5-1v-1.1c0-0.4,0.2-0.7,0.5-1
		c0.3-0.3,0.6-0.4,1-0.4c0,0,0.1,0,0.1,0c1,0.1,1.9,0.1,2.7,0.1h14c0.5,0,1,0,1.5-0.1c0,0,0.1,0,0.1,0c0.4,0,0.7,0.1,0.9,0.4
		c0.3,0.3,0.5,0.6,0.5,1v1.1c0,0.4-0.2,0.7-0.5,1c-0.3,0.3-0.6,0.4-1,0.4c0,0,0,0-0.1,0c-0.6,0-1.1,0-1.5,0h-14
		C117.8,66.6,116.9,66.6,116,66.6z"/>
	<path d="M139.9,63.7c-0.4-0.2-0.6-0.5-0.7-0.9c0-0.1-0.1-0.2-0.1-0.4c0-0.3,0.1-0.5,0.2-0.7l0.2-0.4c0.2-0.4,0.6-0.6,1-0.7
		c0.1,0,0.3-0.1,0.4-0.1c0.3,0,0.5,0.1,0.8,0.2c1.1,0.7,2.3,1.4,3.4,2.1c0.4,0.2,0.6,0.5,0.6,1c0,0.1,0.1,0.2,0.1,0.3
		c0,0.3-0.1,0.6-0.3,0.8l-0.3,0.4c-0.2,0.3-0.5,0.5-0.9,0.6c-0.1,0-0.2,0-0.3,0c-0.3,0-0.6-0.1-0.8-0.3
		C142.1,65.1,141,64.4,139.9,63.7z M143.1,75.7c-0.2,0.1-0.3,0.1-0.5,0.1c-0.3,0-0.5-0.1-0.8-0.2c-0.4-0.2-0.7-0.5-1-0.9l-0.5-0.8
		c-0.1-0.2-0.2-0.3-0.2-0.5c0-0.2,0-0.3,0.1-0.5c0.2-0.3,0.4-0.5,0.8-0.6c2.8-0.6,5.2-1.5,7.4-2.7c1.9-1.1,3.7-2.4,5.3-3.8
		c1.6-1.5,3-3,4-4.6c0.2-0.3,0.4-0.4,0.8-0.4c0.3,0,0.6,0.1,0.7,0.4l0.5,0.9c0.2,0.4,0.3,0.8,0.3,1.2c0,0.5-0.1,1-0.4,1.3
		c-2.4,3.1-5.5,5.8-9.5,8.1C148.1,74.1,145.7,75,143.1,75.7z M143.9,57.8c-0.3-0.2-0.6-0.5-0.7-0.9c0-0.1-0.1-0.2-0.1-0.4
		c0-0.3,0.1-0.5,0.3-0.8l0.2-0.4c0.2-0.3,0.5-0.6,1-0.7c0.1,0,0.2-0.1,0.4-0.1c0.3,0,0.5,0.1,0.8,0.2c1.1,0.6,2.2,1.3,3.4,2.1
		c0.3,0.2,0.6,0.5,0.6,0.9c0,0.1,0,0.2,0,0.3c0,0.3-0.1,0.6-0.3,0.8l-0.3,0.4c-0.2,0.3-0.6,0.6-1,0.6c-0.1,0-0.2,0-0.3,0
		c-0.3,0-0.6-0.1-0.8-0.3C146.1,59.2,145,58.5,143.9,57.8z M154.3,56.6c-0.1-0.2-0.2-0.3-0.2-0.5c0-0.1,0-0.2,0.1-0.3
		c0.1-0.3,0.3-0.5,0.5-0.6c0.2-0.1,0.4-0.1,0.6-0.1c0.1,0,0.3,0,0.4,0.1c0.3,0.1,0.6,0.3,0.8,0.6c0.4,0.7,0.8,1.3,1.2,2
		c0.1,0.2,0.2,0.3,0.2,0.5c0,0.1,0,0.3-0.1,0.4c-0.1,0.3-0.3,0.5-0.6,0.7c-0.2,0.1-0.3,0.1-0.5,0.1s-0.3,0-0.5-0.1
		c-0.3-0.1-0.6-0.3-0.7-0.7C155,57.8,154.6,57.2,154.3,56.6z M157.8,55.3c-0.1-0.2-0.2-0.4-0.2-0.6c0-0.1,0-0.2,0.1-0.3
		c0.1-0.3,0.3-0.5,0.5-0.6c0.2-0.1,0.4-0.1,0.6-0.1c0.1,0,0.3,0,0.4,0.1c0.3,0.1,0.6,0.3,0.8,0.6c0.4,0.5,0.8,1.2,1.2,1.9
		c0.1,0.2,0.2,0.3,0.2,0.5c0,0.1,0,0.2-0.1,0.3c-0.1,0.3-0.3,0.5-0.6,0.7c-0.2,0.1-0.4,0.1-0.5,0.1c-0.1,0-0.3,0-0.4-0.1
		c-0.3-0.1-0.6-0.3-0.7-0.6C158.7,56.6,158.3,55.9,157.8,55.3z"/>
	<path d="M180.5,67.6c-0.3,0.3-0.6,0.5-1.1,0.6c-0.1,0-0.2,0-0.3,0c-0.3,0-0.7-0.1-1-0.3l-0.3-0.2c-0.3-0.2-0.5-0.5-0.5-0.8
		c0-0.1,0-0.1,0-0.2c0-0.3,0.1-0.6,0.4-0.8c1.2-1.3,2.2-2.7,3-4c0,0,0-0.1,0-0.1c0,0-0.1,0-0.1,0c-0.3,0.1-1.3,0.3-3.1,0.6
		s-3.3,0.7-4.5,0.9c-0.1,0-0.2,0.1-0.2,0.2v6.7c0,0.6,0.1,1,0.2,1.3s0.5,0.5,0.9,0.7s1.2,0.2,2.1,0.2c2.1,0,4.3-0.2,6.8-0.6
		c0.1,0,0.1,0,0.2,0c0.3,0,0.5,0.1,0.8,0.3c0.3,0.2,0.4,0.5,0.4,0.9l0,0.5c0,0.4-0.2,0.8-0.5,1.1s-0.6,0.5-1.1,0.6
		c-2.3,0.3-4.5,0.4-6.6,0.4c-1.2,0-2.2-0.1-3-0.2s-1.5-0.3-2-0.5s-0.9-0.5-1.2-0.9s-0.5-0.8-0.5-1.2s-0.1-1-0.1-1.7v-6.9
		c0-0.1-0.1-0.2-0.2-0.2c-1.8,0.4-3.1,0.6-3.8,0.8c-0.1,0-0.2,0-0.3,0c-0.3,0-0.5-0.1-0.8-0.3c-0.4-0.2-0.6-0.5-0.6-0.9l-0.1-0.5
		c0-0.1,0-0.2,0-0.3c0-0.3,0.1-0.6,0.3-0.8c0.2-0.3,0.6-0.5,1-0.6c1.1-0.2,2.6-0.4,4.4-0.8c0.1,0,0.2-0.1,0.2-0.2v-3.5l-0.1-1.6
		c0-0.4,0.1-0.7,0.4-0.9c0.3-0.3,0.6-0.5,1-0.5h0.9c0.4,0,0.7,0.2,1,0.5c0.2,0.3,0.4,0.6,0.4,0.9l-0.1,1.6V60c0,0.1,0.1,0.2,0.2,0.2
		c3.5-0.6,6.3-1.2,8.4-1.7c0.2,0,0.3-0.1,0.4-0.1c0.3-0.1,0.7-0.2,1-0.2c0.6,0,1.2,0.2,1.6,0.6l0.1,0.1c0.3,0.3,0.5,0.6,0.6,1
		c0,0.1,0,0.2,0,0.3c0,0.3-0.1,0.6-0.2,0.9c0,0.1-0.1,0.1-0.1,0.2c-0.5,0.9-1.2,2-2,3.2S181.3,66.7,180.5,67.6z"/>
	<path d="M193.9,75.1c-0.4,0.1-0.7,0.2-1,0.2c-0.5,0-1-0.2-1.4-0.6l-0.2-0.2c-0.5-0.5-0.8-1.2-0.8-2.3c0-0.1,0-0.1,0-0.2
		c0-0.1,0-0.2,0-0.3V57.8c0-0.4,0-0.9-0.1-1.4c0-0.1,0-0.1,0-0.2c0-0.3,0.1-0.6,0.3-0.9c0.3-0.3,0.6-0.4,1-0.4h1.1
		c0.4,0,0.7,0.1,1,0.4c0.2,0.3,0.3,0.6,0.3,0.9c0,0,0,0.1,0,0.1c-0.1,0.5-0.1,1-0.1,1.4v13.3c0,0.1,0,0.1,0.1,0.1s0.1,0,0.1,0
		c2-0.6,4.1-1.6,6.4-2.9s4.2-2.8,5.8-4.5c0.2-0.2,0.5-0.4,0.8-0.4c0,0,0.1,0,0.1,0c0.4,0,0.7,0.2,0.9,0.5l0.3,0.4
		c0.2,0.3,0.3,0.7,0.3,1.1c0,0.1,0,0.1,0,0.2c0,0.5-0.2,0.8-0.5,1.2c-3.4,3.5-8.1,6.3-14.1,8.2c0,0-0.1,0-0.1,0.1
		S194,75.1,193.9,75.1z"/>
	<path d="M229,57.1c0.2,0,0.4,0,0.6,0c0.8,0,1.6,0.2,2.1,0.6l0.1,0.1c0.4,0.2,0.6,0.5,0.7,0.9c0,0.2,0.1,0.3,0.1,0.5
		c0,0.2-0.1,0.5-0.2,0.7c-0.1,0.2-0.1,0.4-0.2,0.5c-0.4,1.4-1,2.8-1.8,4.4s-1.7,3-2.7,4.3c-2.3,2.8-5.4,5.1-9.1,6.8
		c-0.3,0.1-0.6,0.2-0.9,0.2c-0.1,0-0.2,0-0.4,0c-0.5-0.1-0.9-0.3-1.2-0.6l-0.8-0.8c-0.2-0.2-0.3-0.4-0.3-0.6c0-0.1,0-0.1,0-0.2
		c0.1-0.3,0.3-0.5,0.6-0.6c2.1-0.7,3.8-1.6,5.2-2.6c1.4-1,2.7-2.1,3.8-3.4c0.8-0.9,1.6-2.1,2.2-3.4s1.1-2.5,1.4-3.5
		c0-0.1,0-0.1,0-0.1c0,0-0.1-0.1-0.1-0.1h-6.9c-0.1,0-0.2,0.1-0.3,0.2c-1.6,2-3.3,3.8-5.2,5.3c-0.4,0.3-0.7,0.4-1.2,0.4h0
		c-0.5,0-0.9-0.1-1.2-0.4l-0.5-0.4c-0.3-0.2-0.4-0.5-0.4-0.8c0-0.4,0.2-0.7,0.5-0.9c2.8-1.9,5.1-4.4,6.9-7.5
		c0.2-0.4,0.4-0.8,0.7-1.3c0.2-0.4,0.4-0.7,0.8-0.9c0.2-0.1,0.4-0.2,0.7-0.2c0.2,0,0.3,0,0.5,0.1l1,0.3c0.4,0.1,0.6,0.4,0.7,0.7
		c0.1,0.1,0.1,0.3,0.1,0.4c0,0.2-0.1,0.4-0.2,0.6c-0.2,0.4-0.5,0.9-0.8,1.3c0,0.1,0,0.1,0,0.1c0,0,0.1,0.1,0.1,0.1h5
		C228.5,57.2,228.8,57.1,229,57.1z"/>
	<path d="M252.5,64.5c0.4,0.2,0.7,0.4,0.8,0.8c0.1,0.2,0.1,0.4,0.1,0.6c0,0.2,0,0.4-0.1,0.6l-0.3,0.8c-0.2,0.4-0.4,0.6-0.8,0.8
		c-0.2,0.1-0.3,0.1-0.5,0.1c-0.2,0-0.4-0.1-0.6-0.2c-2.3-1.1-4.9-2.1-7.9-3.1c-0.1,0-0.1,0-0.1,0c0,0-0.1,0.1-0.1,0.1v7.2l0.1,2.2
		c0,0.4-0.1,0.7-0.4,0.9c-0.3,0.3-0.6,0.4-1,0.4h-1.1c-0.4,0-0.7-0.1-1-0.4c-0.2-0.3-0.3-0.6-0.3-0.9c0,0,0-0.1,0-0.1
		c0.1-0.8,0.1-1.5,0.1-2.1V57.2c0-0.5,0-1.1-0.1-1.7c0-0.1,0-0.1,0-0.2c0-0.3,0.1-0.6,0.3-0.9c0.3-0.3,0.6-0.5,1-0.5h1.1
		c0.4,0,0.7,0.2,1,0.5c0.2,0.3,0.4,0.6,0.4,0.9c0,0.1,0,0.1,0,0.2c-0.1,0.6-0.1,1.2-0.1,1.7v3.6c0,0.1,0.1,0.2,0.2,0.3
		C246.5,62.1,249.6,63.2,252.5,64.5z"/>
	<path d="M260.7,68.8c-0.2,0.3-0.5,0.5-0.9,0.5c0,0-0.1,0-0.1,0c-0.3,0-0.6-0.1-0.8-0.4l-1-1.1c-0.3-0.3-0.4-0.6-0.4-1
		c0-0.4,0.2-0.8,0.5-1.1c0.3-0.3,0.7-0.7,1-1c0.5-0.5,1.3-1.4,2.5-2.9c1.2-1.5,2-2.4,2.3-2.8c0.9-1,1.8-1.6,2.7-1.7
		c0.1,0,0.1,0,0.2,0c0.8,0,1.7,0.4,2.5,1.2c0.7,0.7,1.7,1.7,2.9,3.2s2.1,2.4,2.4,2.8c1.9,2,3.6,3.8,5.2,5.3c0.3,0.3,0.5,0.7,0.5,1.1
		c0,0.4-0.1,0.7-0.4,1l-0.7,0.8c-0.3,0.3-0.6,0.5-1,0.5c0,0-0.1,0-0.1,0c-0.4,0-0.7-0.1-1-0.4c-1.4-1.4-2.9-3.1-4.6-5.1
		c-0.5-0.6-1.3-1.5-2.4-2.9s-1.9-2.3-2.3-2.8c-0.4-0.5-0.8-0.7-1.1-0.7h0c-0.3,0-0.6,0.3-1,0.8c-0.4,0.5-1.1,1.5-2.1,2.9
		c-1,1.4-1.6,2.2-1.8,2.4C261.3,67.9,261.1,68.3,260.7,68.8z"/>
</g>
</svg>
