<?xml version="1.0" encoding="utf-8"?>
<!-- Generator: Adobe Illustrator 21.1.0, SVG Export Plug-In . SVG Version: 6.00 Build 0)  -->
<svg version="1.1" id="レイヤー_1" xmlns="http://www.w3.org/2000/svg" xmlns:xlink="http://www.w3.org/1999/xlink" x="0px"
	 y="0px" viewBox="0 0 238 167" style="enable-background:new 0 0 238 167;" xml:space="preserve">
<style type="text/css">
	.st0{fill:#F39800;}
	.st1{fill:#FFFFFF;}
</style>
<polygon class="st0" points="119,167 0,83.5 119,0 238,83.5 "/>
<g>
	<path class="st1" d="M43.7,95.6l-0.5-0.7c-0.3-0.4-0.4-0.9-0.3-1.4c0.1-0.5,0.4-0.9,0.8-1.2c4.3-2.5,7.9-5.4,10.9-8.7
		c0.1-0.2,0.1-0.3,0-0.5c-2.3-1.8-4.8-3.7-7.5-5.7c-0.4-0.3-0.7-0.8-0.8-1.3c-0.1-0.5,0.1-1,0.4-1.4l0.5-0.6
		c0.4-0.4,0.8-0.7,1.4-0.8c0.6-0.1,1.1,0.1,1.5,0.4c2.4,1.8,4.9,3.6,7.4,5.6c0.2,0.1,0.3,0.1,0.4-0.1c1.8-2.7,3.3-5.8,4.5-9.3
		c0.2-0.5,0.5-0.9,1-1.2c0.5-0.3,1-0.4,1.5-0.2l0.9,0.2c0.5,0.1,0.9,0.4,1.2,0.8c0.3,0.4,0.3,0.9,0.2,1.4c-1.3,4.3-3.1,8.1-5.4,11.5
		c-0.1,0.2-0.1,0.3,0.1,0.5c2.2,1.8,4.6,4,7.3,6.4c0.4,0.4,0.6,0.8,0.6,1.4c0,0.5-0.2,1-0.5,1.4l-0.5,0.6c-0.4,0.4-0.8,0.6-1.4,0.6
		c-0.5,0-1-0.2-1.4-0.5c-1.8-1.7-4.1-3.7-7-6.2c-0.2-0.1-0.3-0.1-0.5,0c-3.3,3.6-7.2,6.8-11.9,9.5c-0.5,0.3-1,0.4-1.6,0.2
		C44.4,96.3,44,96,43.7,95.6z"/>
	<path class="st1" d="M80.3,74.1c-0.5-0.2-0.8-0.6-1-1.1c-0.2-0.5-0.1-1,0.1-1.5l0.4-0.7c0.3-0.5,0.6-0.8,1.2-1
		c0.5-0.2,1-0.1,1.6,0.1c2.3,1.1,4.7,2.4,7.3,3.8c0.5,0.3,0.8,0.7,0.9,1.2c0.2,0.5,0.1,1-0.2,1.5l-0.4,0.7c-0.3,0.5-0.7,0.8-1.2,0.9
		c-0.5,0.2-1,0.1-1.5-0.2C84.8,76.4,82.4,75.1,80.3,74.1z M104.7,73c0.5,0.1,1,0.4,1.3,0.9c0.3,0.5,0.4,1,0.3,1.5
		c-1.4,6-4.1,10.7-8.1,14.1c-4,3.4-9.4,5.5-16.2,6.4c-0.6,0.1-1.1-0.1-1.5-0.4c-0.4-0.3-0.7-0.8-0.8-1.3l-0.1-0.6
		c-0.1-0.5,0-1,0.4-1.5c0.3-0.4,0.8-0.7,1.3-0.8c5.7-0.8,10.3-2.5,13.5-5.2c3.3-2.7,5.6-6.6,6.9-11.6c0.1-0.5,0.4-1,0.9-1.3
		c0.5-0.3,1-0.4,1.5-0.3L104.7,73z"/>
	<path class="st1" d="M112.2,95.3c-0.5-0.2-0.8-0.6-1-1.1c-0.2-0.5-0.1-1,0.1-1.5c3.2-6.3,5.3-13.1,6.1-20.3c0-0.5,0.3-1,0.7-1.3
		c0.4-0.4,0.9-0.5,1.5-0.5l0.9,0c0.5,0,1,0.3,1.3,0.7c0.4,0.4,0.5,0.9,0.5,1.4c-0.7,7.8-2.9,15.2-6.5,22.1c-0.3,0.5-0.7,0.8-1.2,1
		c-0.5,0.2-1.1,0.1-1.6-0.1L112.2,95.3z M130.4,73.5c-0.1-0.2-0.5-0.9-1.1-2.1c-0.3-0.5-0.3-1-0.1-1.5c0.2-0.5,0.5-0.9,1-1.2h0
		c0.5-0.3,1-0.3,1.5-0.1c0.5,0.2,0.9,0.5,1.2,1c0.3,0.5,0.6,1.2,1.2,2.2c0.2,0.5,0.3,1,0.1,1.5c-0.2,0.5-0.5,0.9-1,1.1
		c-0.5,0.2-1,0.3-1.5,0.1C131,74.3,130.6,73.9,130.4,73.5z M134.2,77.4c0.5-0.2,1-0.1,1.5,0.1c0.5,0.3,0.8,0.7,1,1.2
		c1.6,4.8,3.1,9.8,4.4,15c0.1,0.5,0,1-0.3,1.5c-0.3,0.5-0.7,0.7-1.2,0.9l-1.1,0.2c-0.5,0.1-1,0-1.5-0.3c-0.5-0.3-0.8-0.7-0.9-1.2
		c-1.3-5.4-2.6-10.3-4.1-14.6c-0.2-0.5-0.1-1,0.1-1.5c0.2-0.5,0.6-0.8,1.2-1L134.2,77.4z M138.7,73.3c-0.5,0.2-1,0.3-1.5,0.1
		c-0.5-0.2-0.9-0.5-1.2-1c-0.1-0.2-0.3-0.6-0.6-1.1c-0.3-0.5-0.5-0.9-0.6-1.1c-0.3-0.5-0.3-1-0.2-1.5c0.2-0.5,0.5-0.9,1-1.2l0.1,0
		c0.5-0.3,1-0.3,1.5-0.2c0.5,0.2,0.9,0.5,1.2,1c0.8,1.5,1.2,2.2,1.2,2.3c0.3,0.5,0.3,1,0.1,1.5c-0.2,0.5-0.5,0.9-1,1.1L138.7,73.3z"
		/>
	<path class="st1" d="M149.1,85.1c-0.5,0-1-0.2-1.4-0.6c-0.4-0.4-0.6-0.9-0.6-1.4v-0.7c0-0.5,0.2-1,0.6-1.4c0.4-0.4,0.8-0.6,1.4-0.6
		h25c0.5,0,1,0.2,1.4,0.6c0.4,0.4,0.6,0.9,0.6,1.4v0.7c0,0.5-0.2,1-0.6,1.4c-0.4,0.4-0.8,0.6-1.4,0.6H149.1z"/>
	<path class="st1" d="M184.1,74.2c-0.5,0.1-0.9,0-1.3-0.3c-0.4-0.3-0.6-0.7-0.6-1.2v-0.3c0-0.6,0.2-1.1,0.6-1.6
		c0.4-0.5,0.8-0.7,1.4-0.8c2.2-0.4,4.4-0.6,6.5-0.6c2.8,0,5,0.6,6.6,1.7c1.6,1.1,2.3,2.6,2.3,4.4c0,0.8-0.1,1.6-0.3,2.3
		c-0.2,0.7-0.6,1.3-1.1,1.8c-0.5,0.5-0.9,1-1.3,1.3c-0.4,0.3-0.9,0.7-1.6,1.2c-0.6,0.4-1.1,0.8-1.5,1.1s-0.7,0.6-1.1,1.1
		c-0.4,0.5-0.7,1-0.9,1.5c-0.5,1.3-1.3,2-2.3,2h-0.7c-0.6,0-1-0.2-1.4-0.6c-0.4-0.4-0.5-0.9-0.4-1.4c0.2-0.8,0.6-1.6,1.1-2.4
		c0.5-0.8,1-1.3,1.4-1.6c0.4-0.3,1-0.8,1.9-1.4c0.7-0.5,1.3-0.9,1.6-1.2c0.3-0.3,0.7-0.7,1-1.2c0.3-0.5,0.5-1,0.5-1.6
		c0-1.8-1.5-2.7-4.4-2.7C188.3,73.4,186.3,73.7,184.1,74.2z M188.5,90.4h1.2c0.5,0,1,0.2,1.4,0.6c0.4,0.4,0.6,0.9,0.6,1.4v0.9
		c0,0.5-0.2,1-0.6,1.4c-0.4,0.4-0.9,0.6-1.4,0.6h-1.2c-0.5,0-1-0.2-1.4-0.6c-0.4-0.4-0.6-0.9-0.6-1.4v-0.9c0-0.5,0.2-1,0.6-1.4
		C187.5,90.6,187.9,90.4,188.5,90.4z"/>
</g>
</svg>
