<?xml version="1.0" encoding="utf-8"?>
<!-- Generator: Adobe Illustrator 21.1.0, SVG Export Plug-In . SVG Version: 6.00 Build 0)  -->
<svg version="1.1" id="レイヤー_1" xmlns="http://www.w3.org/2000/svg" xmlns:xlink="http://www.w3.org/1999/xlink" x="0px"
	 y="0px" viewBox="0 0 238 167" style="enable-background:new 0 0 238 167;" xml:space="preserve">
<style type="text/css">
	.st0{fill:#F39800;}
	.st1{fill:#FFFFFF;}
</style>
<polygon class="st0" points="119,167 0,83.5 119,0 238,83.5 "/>
<g>
	<path class="st1" d="M72.6,78.9c-0.5,0-0.9-0.2-1.3-0.5c-0.3-0.4-0.5-0.8-0.5-1.3s0.2-0.9,0.5-1.3c0.4-0.4,0.8-0.5,1.3-0.5h3.3
		c0.2,0,0.3-0.1,0.3-0.3v-2.4c0-0.2-0.1-0.3-0.3-0.3h-2.1c-0.5,0-0.9-0.2-1.2-0.5C72.2,71.5,72,71,72,70.5c0-0.5,0.2-0.9,0.5-1.2
		c0.3-0.3,0.8-0.5,1.2-0.5h2.1c0.2,0,0.3-0.1,0.3-0.3v-0.2c0-0.5,0.2-1,0.6-1.4c0.4-0.4,0.8-0.6,1.4-0.6h0.5c0.5,0,1,0.2,1.4,0.6
		c0.4,0.4,0.6,0.8,0.6,1.4v0.2c0,0.2,0.1,0.3,0.3,0.3h1.5c0.5,0,1,0.2,1.4,0.6c0.4,0.4,0.6,0.8,0.6,1.4v0.1c0,0,0,0.1,0.1,0.1
		c0,0,0.1,0,0.1,0c0.4-0.6,0.7-1.1,1-1.6c0.3-0.5,0.6-0.8,1.1-1c0.5-0.2,1-0.2,1.5,0c0.5,0.2,0.8,0.5,1,1c0.2,0.5,0.2,1,0,1.4
		c-0.7,1.3-1.6,2.8-2.7,4.4c0,0,0,0.1,0,0.1c0,0.1,0,0.1,0.1,0.1c0.4,0,0.7,0.1,1,0.4c0.3,0.3,0.4,0.6,0.4,1v0.4
		c0,0.5-0.2,1-0.5,1.3c-0.4,0.4-0.8,0.5-1.3,0.5h-2.6c-0.2,0-0.4,0.1-0.5,0.2c-0.2,0.2-0.8,0.8-1.9,1.8c0,0-0.1,0.1,0,0.1
		c0,0.1,0.1,0.1,0.1,0.1h3.4c0.4,0,0.8,0.2,1.2,0.5c0.3,0.3,0.5,0.7,0.5,1.2c0,1.2-0.4,2.1-1.1,2.9c-0.5,0.5-1,1-1.5,1.5
		c0,0-0.1,0.1-0.1,0.1c0,0,0,0.1,0.1,0.1c0.3,0,0.9-0.1,1.8-0.1c0.9-0.1,1.6-0.1,2-0.2c0.5,0,0.9,0.1,1.2,0.4
		c0.4,0.3,0.6,0.7,0.6,1.2c0,0.5-0.1,0.9-0.4,1.3c-0.3,0.4-0.7,0.6-1.2,0.6c-1.5,0.1-3.1,0.3-4.8,0.4c-0.2,0-0.3,0.1-0.3,0.3v1.8
		c0,2.3-0.3,3.7-0.8,4.2c-0.5,0.5-1.9,0.8-4.1,0.8c-0.3,0-1,0-2.3-0.1c-0.5,0-1-0.2-1.3-0.6c-0.4-0.4-0.6-0.8-0.6-1.4
		c0-0.5,0.1-0.9,0.5-1.3s0.8-0.5,1.3-0.5c1,0,1.6,0.1,1.8,0.1c0.6,0,1-0.1,1.1-0.2s0.2-0.6,0.2-1.4v-1.2c0-0.2-0.1-0.3-0.3-0.3
		c-0.5,0-1.3,0.1-2.5,0.1c-1.2,0.1-2.1,0.1-2.7,0.1c-0.5,0-0.9-0.1-1.3-0.5c-0.4-0.3-0.5-0.8-0.6-1.3c0-0.5,0.1-0.9,0.4-1.3
		c0.3-0.4,0.7-0.6,1.2-0.6c0.7,0,1.7-0.1,2.9-0.1c1.2-0.1,2.1-0.1,2.6-0.1c0.1,0,0.2-0.1,0.2-0.2c0-0.4,0.1-0.7,0.4-1
		c0.3-0.3,0.6-0.4,1-0.4h0.1c0.1,0,0.3,0,0.4-0.1c0.3-0.3,0.8-0.7,1.4-1.3c0,0,0.1-0.1,0-0.1c0,0-0.1-0.1-0.1-0.1h-4.6
		c-0.2,0-0.3,0.1-0.5,0.2c-0.5,0.3-1.4,0.8-2.5,1.4c-0.5,0.2-1,0.3-1.5,0.1c-0.5-0.2-0.9-0.5-1.2-0.9c-0.3-0.4-0.3-0.9-0.2-1.4
		c0.1-0.5,0.4-0.9,0.9-1.1c1.9-1.1,3.7-2.3,5.3-3.7c0.1-0.1,0.1-0.2-0.1-0.2H72.6z M80.6,72.6V75c0,0.2,0.1,0.3,0.3,0.3h0.2
		c0.2,0,0.3-0.1,0.5-0.2c0.5-0.6,1.2-1.4,2-2.5c0.1-0.1,0.1-0.2-0.1-0.2h-2.6C80.7,72.3,80.6,72.4,80.6,72.6z M102.3,75.5
		c-0.6,6.2-1.9,10.9-3.9,14.1c-0.1,0.1-0.1,0.3,0,0.5c1,1.3,2.3,2.5,3.8,3.5c0.5,0.3,0.8,0.8,0.9,1.3c0.2,0.5,0.1,1.1-0.2,1.5l0,0.1
		c-0.3,0.5-0.6,0.8-1.2,0.9c-0.5,0.2-1,0.1-1.5-0.2c-1.8-1.2-3.3-2.5-4.5-3.9c-0.1-0.1-0.3-0.2-0.4,0c-1.6,1.5-3.7,2.9-6.4,4.2
		c-0.5,0.2-1,0.3-1.6,0.1c-0.5-0.2-1-0.5-1.3-1l0-0.1C85.9,96,85.8,95.5,86,95c0.2-0.5,0.5-0.8,0.9-1.1c2.6-1.2,4.6-2.6,6.2-4.2
		c0.1-0.1,0.1-0.2,0-0.5c-1-2-1.8-4.3-2.3-7c0,0-0.1-0.1-0.1-0.1c0,0-0.1,0-0.1,0.1c-0.1,0.1-0.2,0.3-0.3,0.5
		C90.1,83,90,83.2,90,83.3c-0.3,0.4-0.6,0.7-1.1,0.8c-0.5,0.1-0.9-0.1-1.3-0.5l-0.4-0.4c-0.4-0.4-0.6-0.9-0.7-1.5
		c0-0.6,0.1-1.1,0.4-1.6c1.8-3.1,3.3-7.1,4.5-11.9c0.1-0.5,0.4-1,0.9-1.3c0.5-0.3,1-0.5,1.5-0.4l0.1,0c0.5,0.1,1,0.3,1.3,0.8
		c0.3,0.4,0.4,0.9,0.3,1.4S95.3,70,95,71c0,0.2,0,0.3,0.2,0.3h6.6c0.5,0,1,0.2,1.4,0.6c0.4,0.4,0.6,0.9,0.6,1.4v0.6
		c0,0.4-0.1,0.7-0.4,1c-0.3,0.3-0.6,0.4-1,0.4C102.3,75.3,102.3,75.3,102.3,75.5z M96,85.2c1-2.4,1.8-5.7,2.1-9.7
		c0-0.2-0.1-0.3-0.2-0.3H94c-0.2,0-0.3,0.1-0.4,0.3c-0.2,0.4-0.4,1.1-0.8,2c0,0.1,0,0.1,0.1,0.1c0.3,0,0.6,0,0.9,0.2
		c0.3,0.2,0.4,0.4,0.5,0.8c0.4,2.5,0.9,4.6,1.5,6.5C95.8,85.3,95.9,85.3,96,85.2C95.9,85.3,96,85.3,96,85.2z"/>
	<path class="st1" d="M109.5,98.3c-0.5,0.1-1.1,0.1-1.6-0.1c-0.5-0.2-0.9-0.6-1.1-1.1c-0.2-0.5-0.2-0.9,0-1.4c0.2-0.4,0.5-0.7,1-0.8
		c2.4-0.7,4.5-1.3,6.4-2.1c0,0,0,0,0-0.1c0,0,0,0-0.1,0h-1.1h-2.8c-0.5,0-1-0.2-1.4-0.6c-0.4-0.4-0.6-0.9-0.6-1.4V78.5
		c0-0.5,0.2-1,0.6-1.4c0.4-0.4,0.8-0.6,1.4-0.6h23.6c0.5,0,1,0.2,1.4,0.6c0.4,0.4,0.6,0.8,0.6,1.4v12.2c0,0.5-0.2,1-0.6,1.4
		c-0.4,0.4-0.8,0.6-1.4,0.6h-3.3c0,0,0,0,0,0c0,0,0,0,0,0c2,0.6,3.9,1.3,5.8,2.1c0.5,0.2,0.8,0.6,1,1.1c0.2,0.5,0.1,1-0.2,1.4
		c-0.3,0.5-0.7,0.8-1.3,0.9c-0.5,0.2-1.1,0.1-1.6-0.1c-2.2-1-4.9-2-7.8-3c-0.4-0.1-0.8-0.4-0.9-0.8c-0.2-0.4-0.2-0.8,0-1.3
		c0,0,0-0.1,0-0.1c0,0,0-0.1,0.1-0.1c0,0,0.1-0.1,0-0.2c0-0.1-0.1-0.1-0.2-0.1h-6.9c-0.1,0-0.1,0-0.2,0.1c0,0.1,0,0.1,0,0.2
		c0.2,0.4,0.2,0.9,0.1,1.3c-0.1,0.5-0.4,0.8-0.8,1C115.7,96.4,112.9,97.4,109.5,98.3z M111.7,67.4h20.8c0.5,0,1,0.2,1.4,0.6
		c0.4,0.4,0.6,0.9,0.6,1.4v3.9c0,0.5-0.2,1-0.6,1.4c-0.4,0.4-0.8,0.6-1.4,0.6h-18.2h-2.6c-0.5,0-1-0.2-1.4-0.6
		c-0.4-0.4-0.6-0.9-0.6-1.4v-3.9c0-0.5,0.2-1,0.6-1.4C110.7,67.6,111.2,67.4,111.7,67.4z M113.1,80v0.9c0,0.2,0.1,0.3,0.3,0.3h17.5
		c0.2,0,0.3-0.1,0.3-0.3V80c0-0.2-0.1-0.3-0.3-0.3h-17.5C113.2,79.7,113.1,79.8,113.1,80z M113.1,84.2v1c0,0.2,0.1,0.3,0.3,0.3h17.5
		c0.2,0,0.3-0.1,0.3-0.3v-1c0-0.2-0.1-0.3-0.3-0.3h-17.5C113.2,83.9,113.1,84,113.1,84.2z M113.1,89.4c0,0.2,0.1,0.3,0.3,0.3h17.5
		c0.2,0,0.3-0.1,0.3-0.3v-1c0-0.2-0.1-0.3-0.3-0.3h-17.5c-0.2,0-0.3,0.1-0.3,0.3V89.4z M129.9,72.3v-1.1c0-0.2-0.1-0.3-0.3-0.3
		h-14.9c-0.2,0-0.3,0.1-0.3,0.3v1.1c0,0.2,0.1,0.3,0.3,0.3h14.9C129.8,72.6,129.9,72.5,129.9,72.3z"/>
	<path class="st1" d="M153.1,74.2c-0.5,0.1-0.9,0-1.3-0.3c-0.4-0.3-0.6-0.7-0.6-1.2v-0.3c0-0.6,0.2-1.1,0.6-1.6
		c0.4-0.5,0.8-0.7,1.4-0.8c2.2-0.4,4.4-0.6,6.5-0.6c2.8,0,5,0.6,6.6,1.7c1.6,1.1,2.3,2.6,2.3,4.4c0,0.8-0.1,1.6-0.3,2.3
		c-0.2,0.7-0.6,1.3-1.1,1.8c-0.5,0.5-0.9,1-1.3,1.3c-0.4,0.3-0.9,0.7-1.6,1.2c-0.6,0.4-1.1,0.8-1.5,1.1s-0.7,0.6-1.1,1.1
		c-0.4,0.5-0.7,1-0.9,1.5c-0.5,1.3-1.3,2-2.3,2h-0.7c-0.6,0-1-0.2-1.4-0.6c-0.4-0.4-0.5-0.9-0.4-1.4c0.2-0.8,0.6-1.6,1.1-2.4
		c0.5-0.8,1-1.3,1.4-1.6c0.4-0.3,1-0.8,1.9-1.4c0.7-0.5,1.3-0.9,1.6-1.2c0.3-0.3,0.7-0.7,1-1.2c0.3-0.5,0.5-1,0.5-1.6
		c0-1.8-1.5-2.7-4.4-2.7C157.2,73.4,155.3,73.7,153.1,74.2z M157.4,90.4h1.2c0.5,0,1,0.2,1.4,0.6c0.4,0.4,0.6,0.9,0.6,1.4v0.9
		c0,0.5-0.2,1-0.6,1.4c-0.4,0.4-0.9,0.6-1.4,0.6h-1.2c-0.5,0-1-0.2-1.4-0.6c-0.4-0.4-0.6-0.9-0.6-1.4v-0.9c0-0.5,0.2-1,0.6-1.4
		C156.4,90.6,156.9,90.4,157.4,90.4z"/>
</g>
</svg>
